<mxfile host="app.diagrams.net" modified="2023-04-13T19:21:19.512Z" agent="Mozilla/5.0 (Windows NT 10.0; Win64; x64) AppleWebKit/537.36 (KHTML, like Gecko) Chrome/111.0.0.0 Safari/537.36" etag="20nD9T2pTLy6ObwGd9Qf" version="21.1.7" type="device">
  <diagram name="Página-1" id="NxOe9unB6jpLnXGUCcKp">
    <mxGraphModel dx="2471" dy="936" grid="1" gridSize="10" guides="1" tooltips="1" connect="1" arrows="1" fold="1" page="1" pageScale="1" pageWidth="827" pageHeight="1169" math="0" shadow="0">
      <root>
        <mxCell id="0" />
        <mxCell id="1" parent="0" />
        <mxCell id="khXIBc9hb-4F274Rollf-5" value="&lt;span&gt;A&lt;/span&gt;" style="rounded=0;whiteSpace=wrap;html=1;fontStyle=1" vertex="1" parent="1">
          <mxGeometry x="280" y="120" width="60" height="20" as="geometry" />
        </mxCell>
        <mxCell id="khXIBc9hb-4F274Rollf-6" value="B" style="rounded=0;whiteSpace=wrap;html=1;fontStyle=1" vertex="1" parent="1">
          <mxGeometry x="280" y="140" width="60" height="20" as="geometry" />
        </mxCell>
        <mxCell id="khXIBc9hb-4F274Rollf-7" value="A" style="rounded=0;whiteSpace=wrap;html=1;" vertex="1" parent="1">
          <mxGeometry x="450" y="140" width="110" height="20" as="geometry" />
        </mxCell>
        <mxCell id="khXIBc9hb-4F274Rollf-8" value="-" style="rounded=0;whiteSpace=wrap;html=1;" vertex="1" parent="1">
          <mxGeometry x="450" y="120" width="110" height="20" as="geometry" />
        </mxCell>
        <mxCell id="khXIBc9hb-4F274Rollf-9" value="1" style="rounded=0;whiteSpace=wrap;html=1;" vertex="1" parent="1">
          <mxGeometry x="560" y="120" width="110" height="20" as="geometry" />
        </mxCell>
        <mxCell id="khXIBc9hb-4F274Rollf-10" value="1" style="rounded=0;whiteSpace=wrap;html=1;" vertex="1" parent="1">
          <mxGeometry x="560" y="140" width="110" height="20" as="geometry" />
        </mxCell>
        <mxCell id="khXIBc9hb-4F274Rollf-11" value="Duración (días)" style="rounded=0;whiteSpace=wrap;html=1;fillColor=#ffe6cc;strokeColor=#d79b00;" vertex="1" parent="1">
          <mxGeometry x="560" y="80" width="110" height="40" as="geometry" />
        </mxCell>
        <mxCell id="khXIBc9hb-4F274Rollf-12" value="Predecesor" style="rounded=0;whiteSpace=wrap;html=1;fillColor=#ffe6cc;strokeColor=#d79b00;" vertex="1" parent="1">
          <mxGeometry x="450" y="80" width="110" height="40" as="geometry" />
        </mxCell>
        <mxCell id="khXIBc9hb-4F274Rollf-13" value="Actividad" style="rounded=0;whiteSpace=wrap;html=1;fillColor=#ffe6cc;strokeColor=#d79b00;" vertex="1" parent="1">
          <mxGeometry x="280" y="80" width="60" height="40" as="geometry" />
        </mxCell>
        <mxCell id="khXIBc9hb-4F274Rollf-15" value="C" style="rounded=0;whiteSpace=wrap;html=1;fontStyle=1" vertex="1" parent="1">
          <mxGeometry x="280" y="160" width="60" height="20" as="geometry" />
        </mxCell>
        <mxCell id="khXIBc9hb-4F274Rollf-16" value="A" style="rounded=0;whiteSpace=wrap;html=1;" vertex="1" parent="1">
          <mxGeometry x="450" y="160" width="110" height="20" as="geometry" />
        </mxCell>
        <mxCell id="khXIBc9hb-4F274Rollf-17" value="7" style="rounded=0;whiteSpace=wrap;html=1;" vertex="1" parent="1">
          <mxGeometry x="560" y="160" width="110" height="20" as="geometry" />
        </mxCell>
        <mxCell id="khXIBc9hb-4F274Rollf-18" value="D" style="rounded=0;whiteSpace=wrap;html=1;fontStyle=1" vertex="1" parent="1">
          <mxGeometry x="280" y="180" width="60" height="20" as="geometry" />
        </mxCell>
        <mxCell id="khXIBc9hb-4F274Rollf-19" value="A" style="rounded=0;whiteSpace=wrap;html=1;" vertex="1" parent="1">
          <mxGeometry x="450" y="180" width="110" height="20" as="geometry" />
        </mxCell>
        <mxCell id="khXIBc9hb-4F274Rollf-20" value="7" style="rounded=0;whiteSpace=wrap;html=1;" vertex="1" parent="1">
          <mxGeometry x="560" y="180" width="110" height="20" as="geometry" />
        </mxCell>
        <mxCell id="khXIBc9hb-4F274Rollf-21" value="E" style="rounded=0;whiteSpace=wrap;html=1;fontStyle=1" vertex="1" parent="1">
          <mxGeometry x="280" y="200" width="60" height="20" as="geometry" />
        </mxCell>
        <mxCell id="khXIBc9hb-4F274Rollf-22" value="B" style="rounded=0;whiteSpace=wrap;html=1;" vertex="1" parent="1">
          <mxGeometry x="450" y="200" width="110" height="20" as="geometry" />
        </mxCell>
        <mxCell id="khXIBc9hb-4F274Rollf-23" value="7" style="rounded=0;whiteSpace=wrap;html=1;" vertex="1" parent="1">
          <mxGeometry x="560" y="200" width="110" height="20" as="geometry" />
        </mxCell>
        <mxCell id="khXIBc9hb-4F274Rollf-24" value="F" style="rounded=0;whiteSpace=wrap;html=1;fontStyle=1" vertex="1" parent="1">
          <mxGeometry x="280" y="220" width="60" height="20" as="geometry" />
        </mxCell>
        <mxCell id="khXIBc9hb-4F274Rollf-25" value="E" style="rounded=0;whiteSpace=wrap;html=1;" vertex="1" parent="1">
          <mxGeometry x="450" y="220" width="110" height="20" as="geometry" />
        </mxCell>
        <mxCell id="khXIBc9hb-4F274Rollf-26" value="7" style="rounded=0;whiteSpace=wrap;html=1;" vertex="1" parent="1">
          <mxGeometry x="560" y="220" width="110" height="20" as="geometry" />
        </mxCell>
        <mxCell id="khXIBc9hb-4F274Rollf-27" value="G" style="rounded=0;whiteSpace=wrap;html=1;fontStyle=1" vertex="1" parent="1">
          <mxGeometry x="280" y="240" width="60" height="20" as="geometry" />
        </mxCell>
        <mxCell id="khXIBc9hb-4F274Rollf-28" value="A" style="rounded=0;whiteSpace=wrap;html=1;" vertex="1" parent="1">
          <mxGeometry x="450" y="240" width="110" height="20" as="geometry" />
        </mxCell>
        <mxCell id="khXIBc9hb-4F274Rollf-29" value="14" style="rounded=0;whiteSpace=wrap;html=1;" vertex="1" parent="1">
          <mxGeometry x="560" y="240" width="110" height="20" as="geometry" />
        </mxCell>
        <mxCell id="khXIBc9hb-4F274Rollf-30" value="H" style="rounded=0;whiteSpace=wrap;html=1;fontStyle=1" vertex="1" parent="1">
          <mxGeometry x="280" y="260" width="60" height="20" as="geometry" />
        </mxCell>
        <mxCell id="khXIBc9hb-4F274Rollf-31" value="B" style="rounded=0;whiteSpace=wrap;html=1;" vertex="1" parent="1">
          <mxGeometry x="450" y="260" width="110" height="20" as="geometry" />
        </mxCell>
        <mxCell id="khXIBc9hb-4F274Rollf-32" value="7" style="rounded=0;whiteSpace=wrap;html=1;" vertex="1" parent="1">
          <mxGeometry x="560" y="260" width="110" height="20" as="geometry" />
        </mxCell>
        <mxCell id="khXIBc9hb-4F274Rollf-33" value="I" style="rounded=0;whiteSpace=wrap;html=1;fontStyle=1" vertex="1" parent="1">
          <mxGeometry x="280" y="280" width="60" height="20" as="geometry" />
        </mxCell>
        <mxCell id="khXIBc9hb-4F274Rollf-34" value="B" style="rounded=0;whiteSpace=wrap;html=1;" vertex="1" parent="1">
          <mxGeometry x="450" y="280" width="110" height="20" as="geometry" />
        </mxCell>
        <mxCell id="khXIBc9hb-4F274Rollf-35" value="7" style="rounded=0;whiteSpace=wrap;html=1;" vertex="1" parent="1">
          <mxGeometry x="560" y="280" width="110" height="20" as="geometry" />
        </mxCell>
        <mxCell id="khXIBc9hb-4F274Rollf-36" value="&lt;font style=&quot;font-size: 10px;&quot;&gt;Diagrama de Gantt&lt;/font&gt;" style="rounded=0;whiteSpace=wrap;html=1;" vertex="1" parent="1">
          <mxGeometry x="340" y="140" width="110" height="20" as="geometry" />
        </mxCell>
        <mxCell id="khXIBc9hb-4F274Rollf-37" value="&lt;font style=&quot;font-size: 8px;&quot;&gt;Requerimientos del cliente&lt;/font&gt;" style="rounded=0;whiteSpace=wrap;html=1;" vertex="1" parent="1">
          <mxGeometry x="340" y="120" width="110" height="20" as="geometry" />
        </mxCell>
        <mxCell id="khXIBc9hb-4F274Rollf-38" value="Tarea" style="rounded=0;whiteSpace=wrap;html=1;fillColor=#ffe6cc;strokeColor=#d79b00;" vertex="1" parent="1">
          <mxGeometry x="340" y="80" width="110" height="40" as="geometry" />
        </mxCell>
        <mxCell id="khXIBc9hb-4F274Rollf-39" value="&lt;font style=&quot;font-size: 8px;&quot;&gt;Competencias del equipo&lt;/font&gt;" style="rounded=0;whiteSpace=wrap;html=1;" vertex="1" parent="1">
          <mxGeometry x="340" y="160" width="110" height="20" as="geometry" />
        </mxCell>
        <mxCell id="khXIBc9hb-4F274Rollf-40" value="&lt;font style=&quot;font-size: 10px;&quot;&gt;FODA del equipo&lt;/font&gt;" style="rounded=0;whiteSpace=wrap;html=1;" vertex="1" parent="1">
          <mxGeometry x="340" y="180" width="110" height="20" as="geometry" />
        </mxCell>
        <mxCell id="khXIBc9hb-4F274Rollf-41" value="&lt;font style=&quot;font-size: 7px;&quot;&gt;Diagrama de Entidad-Relación&lt;/font&gt;" style="rounded=0;whiteSpace=wrap;html=1;" vertex="1" parent="1">
          <mxGeometry x="340" y="200" width="110" height="20" as="geometry" />
        </mxCell>
        <mxCell id="khXIBc9hb-4F274Rollf-42" value="&lt;font style=&quot;font-size: 9px;&quot;&gt;Diagrama de Secuencia&lt;/font&gt;" style="rounded=0;whiteSpace=wrap;html=1;" vertex="1" parent="1">
          <mxGeometry x="340" y="220" width="110" height="20" as="geometry" />
        </mxCell>
        <mxCell id="khXIBc9hb-4F274Rollf-43" value="&lt;font style=&quot;font-size: 10px;&quot;&gt;Prototipado Rápido&lt;/font&gt;" style="rounded=0;whiteSpace=wrap;html=1;" vertex="1" parent="1">
          <mxGeometry x="340" y="240" width="110" height="20" as="geometry" />
        </mxCell>
        <mxCell id="khXIBc9hb-4F274Rollf-44" value="&lt;font style=&quot;font-size: 8px;&quot;&gt;Diagrama de Caso de Uso&lt;/font&gt;" style="rounded=0;whiteSpace=wrap;html=1;" vertex="1" parent="1">
          <mxGeometry x="340" y="260" width="110" height="20" as="geometry" />
        </mxCell>
        <mxCell id="khXIBc9hb-4F274Rollf-45" value="&lt;font style=&quot;font-size: 12px;&quot;&gt;Camino Critico&lt;/font&gt;" style="rounded=0;whiteSpace=wrap;html=1;" vertex="1" parent="1">
          <mxGeometry x="340" y="280" width="110" height="20" as="geometry" />
        </mxCell>
        <mxCell id="khXIBc9hb-4F274Rollf-48" value="J" style="rounded=0;whiteSpace=wrap;html=1;fontStyle=1" vertex="1" parent="1">
          <mxGeometry x="280" y="300" width="60" height="20" as="geometry" />
        </mxCell>
        <mxCell id="khXIBc9hb-4F274Rollf-49" value="G" style="rounded=0;whiteSpace=wrap;html=1;" vertex="1" parent="1">
          <mxGeometry x="450" y="300" width="110" height="20" as="geometry" />
        </mxCell>
        <mxCell id="khXIBc9hb-4F274Rollf-50" value="90" style="rounded=0;whiteSpace=wrap;html=1;" vertex="1" parent="1">
          <mxGeometry x="560" y="300" width="110" height="20" as="geometry" />
        </mxCell>
        <mxCell id="khXIBc9hb-4F274Rollf-51" value="Desarrollo" style="rounded=0;whiteSpace=wrap;html=1;" vertex="1" parent="1">
          <mxGeometry x="340" y="300" width="110" height="20" as="geometry" />
        </mxCell>
        <mxCell id="khXIBc9hb-4F274Rollf-52" value="K" style="rounded=0;whiteSpace=wrap;html=1;fontStyle=1" vertex="1" parent="1">
          <mxGeometry x="280" y="320" width="60" height="20" as="geometry" />
        </mxCell>
        <mxCell id="khXIBc9hb-4F274Rollf-53" value="J" style="rounded=0;whiteSpace=wrap;html=1;" vertex="1" parent="1">
          <mxGeometry x="450" y="320" width="110" height="20" as="geometry" />
        </mxCell>
        <mxCell id="khXIBc9hb-4F274Rollf-54" value="2" style="rounded=0;whiteSpace=wrap;html=1;" vertex="1" parent="1">
          <mxGeometry x="560" y="320" width="110" height="20" as="geometry" />
        </mxCell>
        <mxCell id="khXIBc9hb-4F274Rollf-55" value="&lt;font style=&quot;font-size: 12px;&quot;&gt;Test Unitario&lt;/font&gt;" style="rounded=0;whiteSpace=wrap;html=1;" vertex="1" parent="1">
          <mxGeometry x="340" y="320" width="110" height="20" as="geometry" />
        </mxCell>
        <mxCell id="khXIBc9hb-4F274Rollf-56" value="L" style="rounded=0;whiteSpace=wrap;html=1;fontStyle=1" vertex="1" parent="1">
          <mxGeometry x="280" y="340" width="60" height="20" as="geometry" />
        </mxCell>
        <mxCell id="khXIBc9hb-4F274Rollf-57" value="K" style="rounded=0;whiteSpace=wrap;html=1;" vertex="1" parent="1">
          <mxGeometry x="450" y="340" width="110" height="20" as="geometry" />
        </mxCell>
        <mxCell id="khXIBc9hb-4F274Rollf-58" value="2" style="rounded=0;whiteSpace=wrap;html=1;" vertex="1" parent="1">
          <mxGeometry x="560" y="340" width="110" height="20" as="geometry" />
        </mxCell>
        <mxCell id="khXIBc9hb-4F274Rollf-59" value="&lt;font style=&quot;font-size: 9px;&quot;&gt;Presentación del Proyecto&lt;/font&gt;" style="rounded=0;whiteSpace=wrap;html=1;" vertex="1" parent="1">
          <mxGeometry x="340" y="340" width="110" height="20" as="geometry" />
        </mxCell>
        <mxCell id="khXIBc9hb-4F274Rollf-108" style="edgeStyle=orthogonalEdgeStyle;rounded=0;orthogonalLoop=1;jettySize=auto;html=1;" edge="1" parent="1" source="khXIBc9hb-4F274Rollf-68" target="khXIBc9hb-4F274Rollf-78">
          <mxGeometry relative="1" as="geometry" />
        </mxCell>
        <mxCell id="khXIBc9hb-4F274Rollf-68" value="&lt;b&gt;Inicio&lt;/b&gt;" style="ellipse;whiteSpace=wrap;html=1;aspect=fixed;fillColor=#d5e8d4;strokeColor=#82b366;" vertex="1" parent="1">
          <mxGeometry x="150" y="150" width="80" height="80" as="geometry" />
        </mxCell>
        <mxCell id="khXIBc9hb-4F274Rollf-69" value="0" style="text;html=1;strokeColor=none;fillColor=none;align=center;verticalAlign=middle;whiteSpace=wrap;rounded=0;" vertex="1" parent="1">
          <mxGeometry x="110" y="130" width="20" height="20" as="geometry" />
        </mxCell>
        <mxCell id="khXIBc9hb-4F274Rollf-70" value="0" style="text;html=1;strokeColor=none;fillColor=none;align=center;verticalAlign=middle;whiteSpace=wrap;rounded=0;" vertex="1" parent="1">
          <mxGeometry x="130" y="130" width="20" height="20" as="geometry" />
        </mxCell>
        <mxCell id="khXIBc9hb-4F274Rollf-71" value="0" style="text;html=1;strokeColor=none;fillColor=none;align=center;verticalAlign=middle;whiteSpace=wrap;rounded=0;" vertex="1" parent="1">
          <mxGeometry x="130" y="150" width="20" height="20" as="geometry" />
        </mxCell>
        <mxCell id="khXIBc9hb-4F274Rollf-72" value="0" style="text;html=1;strokeColor=none;fillColor=none;align=center;verticalAlign=middle;whiteSpace=wrap;rounded=0;" vertex="1" parent="1">
          <mxGeometry x="110" y="150" width="20" height="20" as="geometry" />
        </mxCell>
        <mxCell id="khXIBc9hb-4F274Rollf-74" value="" style="endArrow=none;html=1;rounded=0;entryX=0;entryY=0;entryDx=0;entryDy=0;exitX=1;exitY=1;exitDx=0;exitDy=0;" edge="1" parent="1" source="khXIBc9hb-4F274Rollf-72" target="khXIBc9hb-4F274Rollf-70">
          <mxGeometry width="50" height="50" relative="1" as="geometry">
            <mxPoint x="120" y="175" as="sourcePoint" />
            <mxPoint x="170" y="125" as="targetPoint" />
          </mxGeometry>
        </mxCell>
        <mxCell id="khXIBc9hb-4F274Rollf-75" value="" style="endArrow=none;html=1;rounded=0;entryX=1;entryY=0;entryDx=0;entryDy=0;exitX=0;exitY=0;exitDx=0;exitDy=0;" edge="1" parent="1" source="khXIBc9hb-4F274Rollf-72" target="khXIBc9hb-4F274Rollf-71">
          <mxGeometry width="50" height="50" relative="1" as="geometry">
            <mxPoint x="140" y="190" as="sourcePoint" />
            <mxPoint x="140" y="130" as="targetPoint" />
          </mxGeometry>
        </mxCell>
        <mxCell id="khXIBc9hb-4F274Rollf-76" value="H = 0" style="text;html=1;strokeColor=none;fillColor=none;align=center;verticalAlign=middle;whiteSpace=wrap;rounded=0;" vertex="1" parent="1">
          <mxGeometry x="220" y="140" width="40" height="25" as="geometry" />
        </mxCell>
        <mxCell id="khXIBc9hb-4F274Rollf-77" value="0" style="text;html=1;strokeColor=none;fillColor=none;align=center;verticalAlign=middle;whiteSpace=wrap;rounded=0;" vertex="1" parent="1">
          <mxGeometry x="200" y="210" width="60" height="30" as="geometry" />
        </mxCell>
        <mxCell id="khXIBc9hb-4F274Rollf-119" style="edgeStyle=orthogonalEdgeStyle;rounded=0;orthogonalLoop=1;jettySize=auto;html=1;" edge="1" parent="1" source="khXIBc9hb-4F274Rollf-78" target="khXIBc9hb-4F274Rollf-89">
          <mxGeometry relative="1" as="geometry">
            <Array as="points">
              <mxPoint x="190" y="390" />
              <mxPoint x="40" y="390" />
            </Array>
          </mxGeometry>
        </mxCell>
        <mxCell id="khXIBc9hb-4F274Rollf-120" style="edgeStyle=orthogonalEdgeStyle;rounded=0;orthogonalLoop=1;jettySize=auto;html=1;entryX=0.5;entryY=0;entryDx=0;entryDy=0;" edge="1" parent="1" source="khXIBc9hb-4F274Rollf-78" target="khXIBc9hb-4F274Rollf-98">
          <mxGeometry relative="1" as="geometry" />
        </mxCell>
        <mxCell id="khXIBc9hb-4F274Rollf-122" style="edgeStyle=orthogonalEdgeStyle;rounded=0;orthogonalLoop=1;jettySize=auto;html=1;" edge="1" parent="1" source="khXIBc9hb-4F274Rollf-78" target="khXIBc9hb-4F274Rollf-110">
          <mxGeometry relative="1" as="geometry">
            <Array as="points">
              <mxPoint x="190" y="390" />
              <mxPoint x="340" y="390" />
            </Array>
          </mxGeometry>
        </mxCell>
        <mxCell id="khXIBc9hb-4F274Rollf-132" style="edgeStyle=orthogonalEdgeStyle;rounded=0;orthogonalLoop=1;jettySize=auto;html=1;" edge="1" parent="1" source="khXIBc9hb-4F274Rollf-78" target="khXIBc9hb-4F274Rollf-123">
          <mxGeometry relative="1" as="geometry">
            <Array as="points">
              <mxPoint x="190" y="390" />
              <mxPoint x="490" y="390" />
            </Array>
          </mxGeometry>
        </mxCell>
        <mxCell id="khXIBc9hb-4F274Rollf-78" value="&lt;b&gt;A&lt;/b&gt;" style="ellipse;whiteSpace=wrap;html=1;aspect=fixed;fillColor=#fff2cc;strokeColor=#d6b656;" vertex="1" parent="1">
          <mxGeometry x="160" y="310" width="60" height="60" as="geometry" />
        </mxCell>
        <mxCell id="khXIBc9hb-4F274Rollf-79" value="0" style="text;html=1;strokeColor=none;fillColor=none;align=center;verticalAlign=middle;whiteSpace=wrap;rounded=0;" vertex="1" parent="1">
          <mxGeometry x="120" y="290" width="20" height="20" as="geometry" />
        </mxCell>
        <mxCell id="khXIBc9hb-4F274Rollf-80" value="1" style="text;html=1;strokeColor=none;fillColor=none;align=center;verticalAlign=middle;whiteSpace=wrap;rounded=0;" vertex="1" parent="1">
          <mxGeometry x="140" y="290" width="20" height="20" as="geometry" />
        </mxCell>
        <mxCell id="khXIBc9hb-4F274Rollf-81" value="1" style="text;html=1;strokeColor=none;fillColor=none;align=center;verticalAlign=middle;whiteSpace=wrap;rounded=0;" vertex="1" parent="1">
          <mxGeometry x="140" y="310" width="20" height="20" as="geometry" />
        </mxCell>
        <mxCell id="khXIBc9hb-4F274Rollf-82" value="0" style="text;html=1;strokeColor=none;fillColor=none;align=center;verticalAlign=middle;whiteSpace=wrap;rounded=0;" vertex="1" parent="1">
          <mxGeometry x="120" y="310" width="20" height="20" as="geometry" />
        </mxCell>
        <mxCell id="khXIBc9hb-4F274Rollf-83" value="" style="endArrow=none;html=1;rounded=0;entryX=0;entryY=0;entryDx=0;entryDy=0;exitX=1;exitY=1;exitDx=0;exitDy=0;" edge="1" parent="1" source="khXIBc9hb-4F274Rollf-82" target="khXIBc9hb-4F274Rollf-80">
          <mxGeometry width="50" height="50" relative="1" as="geometry">
            <mxPoint x="130" y="335" as="sourcePoint" />
            <mxPoint x="180" y="285" as="targetPoint" />
          </mxGeometry>
        </mxCell>
        <mxCell id="khXIBc9hb-4F274Rollf-84" value="" style="endArrow=none;html=1;rounded=0;entryX=1;entryY=0;entryDx=0;entryDy=0;exitX=0;exitY=0;exitDx=0;exitDy=0;" edge="1" parent="1" source="khXIBc9hb-4F274Rollf-82" target="khXIBc9hb-4F274Rollf-81">
          <mxGeometry width="50" height="50" relative="1" as="geometry">
            <mxPoint x="150" y="350" as="sourcePoint" />
            <mxPoint x="150" y="290" as="targetPoint" />
          </mxGeometry>
        </mxCell>
        <mxCell id="khXIBc9hb-4F274Rollf-85" value="H = 1" style="text;html=1;strokeColor=none;fillColor=none;align=center;verticalAlign=middle;whiteSpace=wrap;rounded=0;" vertex="1" parent="1">
          <mxGeometry x="210" y="300" width="40" height="25" as="geometry" />
        </mxCell>
        <mxCell id="khXIBc9hb-4F274Rollf-86" value="1" style="text;html=1;strokeColor=none;fillColor=none;align=center;verticalAlign=middle;whiteSpace=wrap;rounded=0;" vertex="1" parent="1">
          <mxGeometry x="190" y="350" width="60" height="30" as="geometry" />
        </mxCell>
        <mxCell id="khXIBc9hb-4F274Rollf-142" style="edgeStyle=orthogonalEdgeStyle;rounded=0;orthogonalLoop=1;jettySize=auto;html=1;" edge="1" parent="1" source="khXIBc9hb-4F274Rollf-89" target="khXIBc9hb-4F274Rollf-133">
          <mxGeometry relative="1" as="geometry" />
        </mxCell>
        <mxCell id="khXIBc9hb-4F274Rollf-161" style="edgeStyle=orthogonalEdgeStyle;rounded=0;orthogonalLoop=1;jettySize=auto;html=1;" edge="1" parent="1" source="khXIBc9hb-4F274Rollf-89" target="khXIBc9hb-4F274Rollf-143">
          <mxGeometry relative="1" as="geometry">
            <Array as="points">
              <mxPoint x="40" y="510" />
              <mxPoint x="190" y="510" />
            </Array>
          </mxGeometry>
        </mxCell>
        <mxCell id="khXIBc9hb-4F274Rollf-162" style="edgeStyle=orthogonalEdgeStyle;rounded=0;orthogonalLoop=1;jettySize=auto;html=1;" edge="1" parent="1" source="khXIBc9hb-4F274Rollf-89" target="khXIBc9hb-4F274Rollf-152">
          <mxGeometry relative="1" as="geometry">
            <Array as="points">
              <mxPoint x="40" y="510" />
              <mxPoint x="-110" y="510" />
            </Array>
          </mxGeometry>
        </mxCell>
        <mxCell id="khXIBc9hb-4F274Rollf-89" value="&lt;b&gt;B&lt;/b&gt;" style="ellipse;whiteSpace=wrap;html=1;aspect=fixed;fillColor=#fff2cc;strokeColor=#d6b656;" vertex="1" parent="1">
          <mxGeometry x="10" y="430" width="60" height="60" as="geometry" />
        </mxCell>
        <mxCell id="khXIBc9hb-4F274Rollf-90" value="1" style="text;html=1;strokeColor=none;fillColor=none;align=center;verticalAlign=middle;whiteSpace=wrap;rounded=0;" vertex="1" parent="1">
          <mxGeometry x="-30" y="410" width="20" height="20" as="geometry" />
        </mxCell>
        <mxCell id="khXIBc9hb-4F274Rollf-91" value="2" style="text;html=1;strokeColor=none;fillColor=none;align=center;verticalAlign=middle;whiteSpace=wrap;rounded=0;" vertex="1" parent="1">
          <mxGeometry x="-10" y="410" width="20" height="20" as="geometry" />
        </mxCell>
        <mxCell id="khXIBc9hb-4F274Rollf-92" value="&lt;font style=&quot;font-size: 10px;&quot;&gt;102&lt;/font&gt;" style="text;html=1;strokeColor=none;fillColor=none;align=center;verticalAlign=middle;whiteSpace=wrap;rounded=0;" vertex="1" parent="1">
          <mxGeometry x="-10" y="430" width="20" height="20" as="geometry" />
        </mxCell>
        <mxCell id="khXIBc9hb-4F274Rollf-93" value="&lt;font style=&quot;font-size: 10px;&quot;&gt;101&lt;/font&gt;" style="text;html=1;strokeColor=none;fillColor=none;align=center;verticalAlign=middle;whiteSpace=wrap;rounded=0;" vertex="1" parent="1">
          <mxGeometry x="-30" y="430" width="20" height="20" as="geometry" />
        </mxCell>
        <mxCell id="khXIBc9hb-4F274Rollf-94" value="" style="endArrow=none;html=1;rounded=0;entryX=0;entryY=0;entryDx=0;entryDy=0;exitX=1;exitY=1;exitDx=0;exitDy=0;" edge="1" parent="1" source="khXIBc9hb-4F274Rollf-93" target="khXIBc9hb-4F274Rollf-91">
          <mxGeometry width="50" height="50" relative="1" as="geometry">
            <mxPoint x="-20" y="455" as="sourcePoint" />
            <mxPoint x="30" y="405" as="targetPoint" />
          </mxGeometry>
        </mxCell>
        <mxCell id="khXIBc9hb-4F274Rollf-95" value="" style="endArrow=none;html=1;rounded=0;entryX=1;entryY=0;entryDx=0;entryDy=0;exitX=0;exitY=0;exitDx=0;exitDy=0;" edge="1" parent="1" source="khXIBc9hb-4F274Rollf-93" target="khXIBc9hb-4F274Rollf-92">
          <mxGeometry width="50" height="50" relative="1" as="geometry">
            <mxPoint y="470" as="sourcePoint" />
            <mxPoint y="410" as="targetPoint" />
          </mxGeometry>
        </mxCell>
        <mxCell id="khXIBc9hb-4F274Rollf-96" value="H = 1" style="text;html=1;strokeColor=none;fillColor=none;align=center;verticalAlign=middle;whiteSpace=wrap;rounded=0;" vertex="1" parent="1">
          <mxGeometry x="60" y="420" width="40" height="25" as="geometry" />
        </mxCell>
        <mxCell id="khXIBc9hb-4F274Rollf-97" value="1" style="text;html=1;strokeColor=none;fillColor=none;align=center;verticalAlign=middle;whiteSpace=wrap;rounded=0;" vertex="1" parent="1">
          <mxGeometry x="40" y="470" width="60" height="30" as="geometry" />
        </mxCell>
        <mxCell id="khXIBc9hb-4F274Rollf-226" style="edgeStyle=orthogonalEdgeStyle;rounded=0;orthogonalLoop=1;jettySize=auto;html=1;" edge="1" parent="1" source="khXIBc9hb-4F274Rollf-98" target="khXIBc9hb-4F274Rollf-207">
          <mxGeometry relative="1" as="geometry">
            <Array as="points">
              <mxPoint x="280" y="460" />
              <mxPoint x="280" y="720" />
              <mxPoint x="190" y="720" />
            </Array>
          </mxGeometry>
        </mxCell>
        <mxCell id="khXIBc9hb-4F274Rollf-98" value="&lt;b&gt;C&lt;/b&gt;" style="ellipse;whiteSpace=wrap;html=1;aspect=fixed;fillColor=#fff2cc;strokeColor=#d6b656;" vertex="1" parent="1">
          <mxGeometry x="160" y="430" width="60" height="60" as="geometry" />
        </mxCell>
        <mxCell id="khXIBc9hb-4F274Rollf-99" value="1" style="text;html=1;strokeColor=none;fillColor=none;align=center;verticalAlign=middle;whiteSpace=wrap;rounded=0;" vertex="1" parent="1">
          <mxGeometry x="120" y="410" width="20" height="20" as="geometry" />
        </mxCell>
        <mxCell id="khXIBc9hb-4F274Rollf-100" value="8" style="text;html=1;strokeColor=none;fillColor=none;align=center;verticalAlign=middle;whiteSpace=wrap;rounded=0;" vertex="1" parent="1">
          <mxGeometry x="140" y="410" width="20" height="20" as="geometry" />
        </mxCell>
        <mxCell id="khXIBc9hb-4F274Rollf-101" value="&lt;font style=&quot;font-size: 10px;&quot;&gt;109&lt;/font&gt;" style="text;html=1;strokeColor=none;fillColor=none;align=center;verticalAlign=middle;whiteSpace=wrap;rounded=0;" vertex="1" parent="1">
          <mxGeometry x="140" y="430" width="20" height="20" as="geometry" />
        </mxCell>
        <mxCell id="khXIBc9hb-4F274Rollf-102" value="&lt;font style=&quot;font-size: 10px;&quot;&gt;102&lt;/font&gt;" style="text;html=1;strokeColor=none;fillColor=none;align=center;verticalAlign=middle;whiteSpace=wrap;rounded=0;" vertex="1" parent="1">
          <mxGeometry x="120" y="430" width="20" height="20" as="geometry" />
        </mxCell>
        <mxCell id="khXIBc9hb-4F274Rollf-103" value="" style="endArrow=none;html=1;rounded=0;entryX=0;entryY=0;entryDx=0;entryDy=0;exitX=1;exitY=1;exitDx=0;exitDy=0;" edge="1" parent="1" source="khXIBc9hb-4F274Rollf-102" target="khXIBc9hb-4F274Rollf-100">
          <mxGeometry width="50" height="50" relative="1" as="geometry">
            <mxPoint x="130" y="455" as="sourcePoint" />
            <mxPoint x="180" y="405" as="targetPoint" />
          </mxGeometry>
        </mxCell>
        <mxCell id="khXIBc9hb-4F274Rollf-104" value="" style="endArrow=none;html=1;rounded=0;entryX=1;entryY=0;entryDx=0;entryDy=0;exitX=0;exitY=0;exitDx=0;exitDy=0;" edge="1" parent="1" source="khXIBc9hb-4F274Rollf-102" target="khXIBc9hb-4F274Rollf-101">
          <mxGeometry width="50" height="50" relative="1" as="geometry">
            <mxPoint x="150" y="470" as="sourcePoint" />
            <mxPoint x="150" y="410" as="targetPoint" />
          </mxGeometry>
        </mxCell>
        <mxCell id="khXIBc9hb-4F274Rollf-105" value="H = 7" style="text;html=1;strokeColor=none;fillColor=none;align=center;verticalAlign=middle;whiteSpace=wrap;rounded=0;" vertex="1" parent="1">
          <mxGeometry x="210" y="420" width="40" height="25" as="geometry" />
        </mxCell>
        <mxCell id="khXIBc9hb-4F274Rollf-106" value="7" style="text;html=1;strokeColor=none;fillColor=none;align=center;verticalAlign=middle;whiteSpace=wrap;rounded=0;" vertex="1" parent="1">
          <mxGeometry x="190" y="470" width="60" height="30" as="geometry" />
        </mxCell>
        <mxCell id="khXIBc9hb-4F274Rollf-227" style="edgeStyle=orthogonalEdgeStyle;rounded=0;orthogonalLoop=1;jettySize=auto;html=1;" edge="1" parent="1" source="khXIBc9hb-4F274Rollf-110" target="khXIBc9hb-4F274Rollf-207">
          <mxGeometry relative="1" as="geometry">
            <Array as="points">
              <mxPoint x="340" y="820" />
            </Array>
          </mxGeometry>
        </mxCell>
        <mxCell id="khXIBc9hb-4F274Rollf-110" value="&lt;b&gt;D&lt;/b&gt;" style="ellipse;whiteSpace=wrap;html=1;aspect=fixed;fillColor=#fff2cc;strokeColor=#d6b656;" vertex="1" parent="1">
          <mxGeometry x="310" y="430" width="60" height="60" as="geometry" />
        </mxCell>
        <mxCell id="khXIBc9hb-4F274Rollf-111" value="1" style="text;html=1;strokeColor=none;fillColor=none;align=center;verticalAlign=middle;whiteSpace=wrap;rounded=0;" vertex="1" parent="1">
          <mxGeometry x="270" y="410" width="20" height="20" as="geometry" />
        </mxCell>
        <mxCell id="khXIBc9hb-4F274Rollf-112" value="8" style="text;html=1;strokeColor=none;fillColor=none;align=center;verticalAlign=middle;whiteSpace=wrap;rounded=0;" vertex="1" parent="1">
          <mxGeometry x="290" y="410" width="20" height="20" as="geometry" />
        </mxCell>
        <mxCell id="khXIBc9hb-4F274Rollf-113" value="&lt;font style=&quot;font-size: 10px;&quot;&gt;109&lt;/font&gt;" style="text;html=1;strokeColor=none;fillColor=none;align=center;verticalAlign=middle;whiteSpace=wrap;rounded=0;" vertex="1" parent="1">
          <mxGeometry x="290" y="430" width="20" height="20" as="geometry" />
        </mxCell>
        <mxCell id="khXIBc9hb-4F274Rollf-114" value="&lt;font style=&quot;font-size: 10px;&quot;&gt;102&lt;/font&gt;" style="text;html=1;strokeColor=none;fillColor=none;align=center;verticalAlign=middle;whiteSpace=wrap;rounded=0;" vertex="1" parent="1">
          <mxGeometry x="270" y="430" width="20" height="20" as="geometry" />
        </mxCell>
        <mxCell id="khXIBc9hb-4F274Rollf-115" value="" style="endArrow=none;html=1;rounded=0;entryX=0;entryY=0;entryDx=0;entryDy=0;exitX=1;exitY=1;exitDx=0;exitDy=0;" edge="1" parent="1" source="khXIBc9hb-4F274Rollf-114" target="khXIBc9hb-4F274Rollf-112">
          <mxGeometry width="50" height="50" relative="1" as="geometry">
            <mxPoint x="280" y="455" as="sourcePoint" />
            <mxPoint x="330" y="405" as="targetPoint" />
          </mxGeometry>
        </mxCell>
        <mxCell id="khXIBc9hb-4F274Rollf-116" value="" style="endArrow=none;html=1;rounded=0;entryX=1;entryY=0;entryDx=0;entryDy=0;exitX=0;exitY=0;exitDx=0;exitDy=0;" edge="1" parent="1" source="khXIBc9hb-4F274Rollf-114" target="khXIBc9hb-4F274Rollf-113">
          <mxGeometry width="50" height="50" relative="1" as="geometry">
            <mxPoint x="300" y="470" as="sourcePoint" />
            <mxPoint x="300" y="410" as="targetPoint" />
          </mxGeometry>
        </mxCell>
        <mxCell id="khXIBc9hb-4F274Rollf-117" value="H = 7" style="text;html=1;strokeColor=none;fillColor=none;align=center;verticalAlign=middle;whiteSpace=wrap;rounded=0;" vertex="1" parent="1">
          <mxGeometry x="360" y="420" width="40" height="25" as="geometry" />
        </mxCell>
        <mxCell id="khXIBc9hb-4F274Rollf-118" value="7" style="text;html=1;strokeColor=none;fillColor=none;align=center;verticalAlign=middle;whiteSpace=wrap;rounded=0;" vertex="1" parent="1">
          <mxGeometry x="340" y="470" width="60" height="30" as="geometry" />
        </mxCell>
        <mxCell id="khXIBc9hb-4F274Rollf-184" style="edgeStyle=orthogonalEdgeStyle;rounded=0;orthogonalLoop=1;jettySize=auto;html=1;" edge="1" parent="1" source="khXIBc9hb-4F274Rollf-123" target="khXIBc9hb-4F274Rollf-175">
          <mxGeometry relative="1" as="geometry" />
        </mxCell>
        <mxCell id="khXIBc9hb-4F274Rollf-123" value="&lt;b&gt;G&lt;/b&gt;" style="ellipse;whiteSpace=wrap;html=1;aspect=fixed;fillColor=#fff2cc;strokeColor=#d6b656;" vertex="1" parent="1">
          <mxGeometry x="460" y="430" width="60" height="60" as="geometry" />
        </mxCell>
        <mxCell id="khXIBc9hb-4F274Rollf-124" value="1" style="text;html=1;strokeColor=none;fillColor=none;align=center;verticalAlign=middle;whiteSpace=wrap;rounded=0;" vertex="1" parent="1">
          <mxGeometry x="420" y="410" width="20" height="20" as="geometry" />
        </mxCell>
        <mxCell id="khXIBc9hb-4F274Rollf-125" value="15" style="text;html=1;strokeColor=none;fillColor=none;align=center;verticalAlign=middle;whiteSpace=wrap;rounded=0;" vertex="1" parent="1">
          <mxGeometry x="440" y="410" width="20" height="20" as="geometry" />
        </mxCell>
        <mxCell id="khXIBc9hb-4F274Rollf-126" value="15" style="text;html=1;strokeColor=none;fillColor=none;align=center;verticalAlign=middle;whiteSpace=wrap;rounded=0;" vertex="1" parent="1">
          <mxGeometry x="440" y="430" width="20" height="20" as="geometry" />
        </mxCell>
        <mxCell id="khXIBc9hb-4F274Rollf-127" value="1" style="text;html=1;strokeColor=none;fillColor=none;align=center;verticalAlign=middle;whiteSpace=wrap;rounded=0;" vertex="1" parent="1">
          <mxGeometry x="420" y="430" width="20" height="20" as="geometry" />
        </mxCell>
        <mxCell id="khXIBc9hb-4F274Rollf-128" value="" style="endArrow=none;html=1;rounded=0;entryX=0;entryY=0;entryDx=0;entryDy=0;exitX=1;exitY=1;exitDx=0;exitDy=0;" edge="1" parent="1" source="khXIBc9hb-4F274Rollf-127" target="khXIBc9hb-4F274Rollf-125">
          <mxGeometry width="50" height="50" relative="1" as="geometry">
            <mxPoint x="430" y="455" as="sourcePoint" />
            <mxPoint x="480" y="405" as="targetPoint" />
          </mxGeometry>
        </mxCell>
        <mxCell id="khXIBc9hb-4F274Rollf-129" value="" style="endArrow=none;html=1;rounded=0;entryX=1;entryY=0;entryDx=0;entryDy=0;exitX=0;exitY=0;exitDx=0;exitDy=0;" edge="1" parent="1" source="khXIBc9hb-4F274Rollf-127" target="khXIBc9hb-4F274Rollf-126">
          <mxGeometry width="50" height="50" relative="1" as="geometry">
            <mxPoint x="450" y="470" as="sourcePoint" />
            <mxPoint x="450" y="410" as="targetPoint" />
          </mxGeometry>
        </mxCell>
        <mxCell id="khXIBc9hb-4F274Rollf-130" value="H = 0" style="text;html=1;strokeColor=none;fillColor=none;align=center;verticalAlign=middle;whiteSpace=wrap;rounded=0;" vertex="1" parent="1">
          <mxGeometry x="510" y="420" width="40" height="25" as="geometry" />
        </mxCell>
        <mxCell id="khXIBc9hb-4F274Rollf-131" value="14" style="text;html=1;strokeColor=none;fillColor=none;align=center;verticalAlign=middle;whiteSpace=wrap;rounded=0;" vertex="1" parent="1">
          <mxGeometry x="490" y="470" width="60" height="30" as="geometry" />
        </mxCell>
        <mxCell id="khXIBc9hb-4F274Rollf-224" style="edgeStyle=orthogonalEdgeStyle;rounded=0;orthogonalLoop=1;jettySize=auto;html=1;" edge="1" parent="1" source="khXIBc9hb-4F274Rollf-133" target="khXIBc9hb-4F274Rollf-207">
          <mxGeometry relative="1" as="geometry">
            <Array as="points">
              <mxPoint x="40" y="720" />
              <mxPoint x="190" y="720" />
            </Array>
          </mxGeometry>
        </mxCell>
        <mxCell id="khXIBc9hb-4F274Rollf-133" value="&lt;b&gt;H&lt;/b&gt;" style="ellipse;whiteSpace=wrap;html=1;aspect=fixed;fillColor=#fff2cc;strokeColor=#d6b656;" vertex="1" parent="1">
          <mxGeometry x="10" y="550" width="60" height="60" as="geometry" />
        </mxCell>
        <mxCell id="khXIBc9hb-4F274Rollf-134" value="15" style="text;html=1;strokeColor=none;fillColor=none;align=center;verticalAlign=middle;whiteSpace=wrap;rounded=0;" vertex="1" parent="1">
          <mxGeometry x="-30" y="530" width="20" height="20" as="geometry" />
        </mxCell>
        <mxCell id="khXIBc9hb-4F274Rollf-135" value="22" style="text;html=1;strokeColor=none;fillColor=none;align=center;verticalAlign=middle;whiteSpace=wrap;rounded=0;" vertex="1" parent="1">
          <mxGeometry x="-10" y="530" width="20" height="20" as="geometry" />
        </mxCell>
        <mxCell id="khXIBc9hb-4F274Rollf-137" value="&lt;font style=&quot;font-size: 10px;&quot;&gt;102&lt;/font&gt;" style="text;html=1;strokeColor=none;fillColor=none;align=center;verticalAlign=middle;whiteSpace=wrap;rounded=0;" vertex="1" parent="1">
          <mxGeometry x="-30" y="550" width="20" height="20" as="geometry" />
        </mxCell>
        <mxCell id="khXIBc9hb-4F274Rollf-138" value="" style="endArrow=none;html=1;rounded=0;entryX=0;entryY=0;entryDx=0;entryDy=0;exitX=1;exitY=1;exitDx=0;exitDy=0;" edge="1" parent="1" source="khXIBc9hb-4F274Rollf-137" target="khXIBc9hb-4F274Rollf-135">
          <mxGeometry width="50" height="50" relative="1" as="geometry">
            <mxPoint x="-20" y="575" as="sourcePoint" />
            <mxPoint x="30" y="525" as="targetPoint" />
          </mxGeometry>
        </mxCell>
        <mxCell id="khXIBc9hb-4F274Rollf-139" value="" style="endArrow=none;html=1;rounded=0;entryX=1;entryY=0;entryDx=0;entryDy=0;exitX=0;exitY=0;exitDx=0;exitDy=0;" edge="1" parent="1" source="khXIBc9hb-4F274Rollf-137">
          <mxGeometry width="50" height="50" relative="1" as="geometry">
            <mxPoint y="590" as="sourcePoint" />
            <mxPoint x="10" y="550" as="targetPoint" />
          </mxGeometry>
        </mxCell>
        <mxCell id="khXIBc9hb-4F274Rollf-140" value="H = 7" style="text;html=1;strokeColor=none;fillColor=none;align=center;verticalAlign=middle;whiteSpace=wrap;rounded=0;" vertex="1" parent="1">
          <mxGeometry x="60" y="540" width="40" height="25" as="geometry" />
        </mxCell>
        <mxCell id="khXIBc9hb-4F274Rollf-141" value="7" style="text;html=1;strokeColor=none;fillColor=none;align=center;verticalAlign=middle;whiteSpace=wrap;rounded=0;" vertex="1" parent="1">
          <mxGeometry x="40" y="590" width="60" height="30" as="geometry" />
        </mxCell>
        <mxCell id="khXIBc9hb-4F274Rollf-225" style="edgeStyle=orthogonalEdgeStyle;rounded=0;orthogonalLoop=1;jettySize=auto;html=1;" edge="1" parent="1" source="khXIBc9hb-4F274Rollf-143" target="khXIBc9hb-4F274Rollf-207">
          <mxGeometry relative="1" as="geometry" />
        </mxCell>
        <mxCell id="khXIBc9hb-4F274Rollf-143" value="&lt;b&gt;I&lt;/b&gt;" style="ellipse;whiteSpace=wrap;html=1;aspect=fixed;fillColor=#fff2cc;strokeColor=#d6b656;" vertex="1" parent="1">
          <mxGeometry x="160" y="550" width="60" height="60" as="geometry" />
        </mxCell>
        <mxCell id="khXIBc9hb-4F274Rollf-144" value="15" style="text;html=1;strokeColor=none;fillColor=none;align=center;verticalAlign=middle;whiteSpace=wrap;rounded=0;" vertex="1" parent="1">
          <mxGeometry x="120" y="530" width="20" height="20" as="geometry" />
        </mxCell>
        <mxCell id="khXIBc9hb-4F274Rollf-145" value="22" style="text;html=1;strokeColor=none;fillColor=none;align=center;verticalAlign=middle;whiteSpace=wrap;rounded=0;" vertex="1" parent="1">
          <mxGeometry x="140" y="530" width="20" height="20" as="geometry" />
        </mxCell>
        <mxCell id="khXIBc9hb-4F274Rollf-148" value="" style="endArrow=none;html=1;rounded=0;entryX=0;entryY=0;entryDx=0;entryDy=0;exitX=1;exitY=1;exitDx=0;exitDy=0;" edge="1" parent="1" target="khXIBc9hb-4F274Rollf-145">
          <mxGeometry width="50" height="50" relative="1" as="geometry">
            <mxPoint x="140" y="570" as="sourcePoint" />
            <mxPoint x="180" y="525" as="targetPoint" />
          </mxGeometry>
        </mxCell>
        <mxCell id="khXIBc9hb-4F274Rollf-149" value="" style="endArrow=none;html=1;rounded=0;entryX=1;entryY=0;entryDx=0;entryDy=0;exitX=0;exitY=0;exitDx=0;exitDy=0;" edge="1" parent="1">
          <mxGeometry width="50" height="50" relative="1" as="geometry">
            <mxPoint x="120" y="550" as="sourcePoint" />
            <mxPoint x="160" y="550" as="targetPoint" />
          </mxGeometry>
        </mxCell>
        <mxCell id="khXIBc9hb-4F274Rollf-150" value="H = 7" style="text;html=1;strokeColor=none;fillColor=none;align=center;verticalAlign=middle;whiteSpace=wrap;rounded=0;" vertex="1" parent="1">
          <mxGeometry x="210" y="540" width="40" height="25" as="geometry" />
        </mxCell>
        <mxCell id="khXIBc9hb-4F274Rollf-151" value="7" style="text;html=1;strokeColor=none;fillColor=none;align=center;verticalAlign=middle;whiteSpace=wrap;rounded=0;" vertex="1" parent="1">
          <mxGeometry x="190" y="590" width="60" height="30" as="geometry" />
        </mxCell>
        <mxCell id="khXIBc9hb-4F274Rollf-173" style="edgeStyle=orthogonalEdgeStyle;rounded=0;orthogonalLoop=1;jettySize=auto;html=1;" edge="1" parent="1" source="khXIBc9hb-4F274Rollf-152" target="khXIBc9hb-4F274Rollf-164">
          <mxGeometry relative="1" as="geometry" />
        </mxCell>
        <mxCell id="khXIBc9hb-4F274Rollf-152" value="&lt;b&gt;E&lt;/b&gt;" style="ellipse;whiteSpace=wrap;html=1;aspect=fixed;fillColor=#fff2cc;strokeColor=#d6b656;" vertex="1" parent="1">
          <mxGeometry x="-140" y="550" width="60" height="60" as="geometry" />
        </mxCell>
        <mxCell id="khXIBc9hb-4F274Rollf-153" value="15" style="text;html=1;strokeColor=none;fillColor=none;align=center;verticalAlign=middle;whiteSpace=wrap;rounded=0;" vertex="1" parent="1">
          <mxGeometry x="-180" y="530" width="20" height="20" as="geometry" />
        </mxCell>
        <mxCell id="khXIBc9hb-4F274Rollf-154" value="22" style="text;html=1;strokeColor=none;fillColor=none;align=center;verticalAlign=middle;whiteSpace=wrap;rounded=0;" vertex="1" parent="1">
          <mxGeometry x="-160" y="530" width="20" height="20" as="geometry" />
        </mxCell>
        <mxCell id="khXIBc9hb-4F274Rollf-155" value="&lt;font style=&quot;font-size: 10px;&quot;&gt;109&lt;/font&gt;" style="text;html=1;strokeColor=none;fillColor=none;align=center;verticalAlign=middle;whiteSpace=wrap;rounded=0;" vertex="1" parent="1">
          <mxGeometry x="-160" y="550" width="20" height="20" as="geometry" />
        </mxCell>
        <mxCell id="khXIBc9hb-4F274Rollf-156" value="&lt;font style=&quot;font-size: 10px;&quot;&gt;102&lt;/font&gt;" style="text;html=1;strokeColor=none;fillColor=none;align=center;verticalAlign=middle;whiteSpace=wrap;rounded=0;" vertex="1" parent="1">
          <mxGeometry x="-180" y="550" width="20" height="20" as="geometry" />
        </mxCell>
        <mxCell id="khXIBc9hb-4F274Rollf-157" value="" style="endArrow=none;html=1;rounded=0;entryX=0;entryY=0;entryDx=0;entryDy=0;exitX=1;exitY=1;exitDx=0;exitDy=0;" edge="1" parent="1" source="khXIBc9hb-4F274Rollf-156" target="khXIBc9hb-4F274Rollf-154">
          <mxGeometry width="50" height="50" relative="1" as="geometry">
            <mxPoint x="-170" y="575" as="sourcePoint" />
            <mxPoint x="-120" y="525" as="targetPoint" />
          </mxGeometry>
        </mxCell>
        <mxCell id="khXIBc9hb-4F274Rollf-158" value="" style="endArrow=none;html=1;rounded=0;entryX=1;entryY=0;entryDx=0;entryDy=0;exitX=0;exitY=0;exitDx=0;exitDy=0;" edge="1" parent="1" source="khXIBc9hb-4F274Rollf-156" target="khXIBc9hb-4F274Rollf-155">
          <mxGeometry width="50" height="50" relative="1" as="geometry">
            <mxPoint x="-150" y="590" as="sourcePoint" />
            <mxPoint x="-150" y="530" as="targetPoint" />
          </mxGeometry>
        </mxCell>
        <mxCell id="khXIBc9hb-4F274Rollf-159" value="H = 7" style="text;html=1;strokeColor=none;fillColor=none;align=center;verticalAlign=middle;whiteSpace=wrap;rounded=0;" vertex="1" parent="1">
          <mxGeometry x="-90" y="540" width="40" height="25" as="geometry" />
        </mxCell>
        <mxCell id="khXIBc9hb-4F274Rollf-160" value="7" style="text;html=1;strokeColor=none;fillColor=none;align=center;verticalAlign=middle;whiteSpace=wrap;rounded=0;" vertex="1" parent="1">
          <mxGeometry x="-110" y="590" width="60" height="30" as="geometry" />
        </mxCell>
        <mxCell id="khXIBc9hb-4F274Rollf-223" style="edgeStyle=orthogonalEdgeStyle;rounded=0;orthogonalLoop=1;jettySize=auto;html=1;" edge="1" parent="1" source="khXIBc9hb-4F274Rollf-164" target="khXIBc9hb-4F274Rollf-207">
          <mxGeometry relative="1" as="geometry">
            <Array as="points">
              <mxPoint x="-110" y="820" />
            </Array>
          </mxGeometry>
        </mxCell>
        <mxCell id="khXIBc9hb-4F274Rollf-164" value="&lt;b&gt;F&lt;/b&gt;" style="ellipse;whiteSpace=wrap;html=1;aspect=fixed;fillColor=#fff2cc;strokeColor=#d6b656;" vertex="1" parent="1">
          <mxGeometry x="-140" y="670" width="60" height="60" as="geometry" />
        </mxCell>
        <mxCell id="khXIBc9hb-4F274Rollf-165" value="22" style="text;html=1;strokeColor=none;fillColor=none;align=center;verticalAlign=middle;whiteSpace=wrap;rounded=0;" vertex="1" parent="1">
          <mxGeometry x="-180" y="650" width="20" height="20" as="geometry" />
        </mxCell>
        <mxCell id="khXIBc9hb-4F274Rollf-166" value="29" style="text;html=1;strokeColor=none;fillColor=none;align=center;verticalAlign=middle;whiteSpace=wrap;rounded=0;" vertex="1" parent="1">
          <mxGeometry x="-160" y="650" width="20" height="20" as="geometry" />
        </mxCell>
        <mxCell id="khXIBc9hb-4F274Rollf-167" value="&lt;font style=&quot;font-size: 10px;&quot;&gt;109&lt;/font&gt;" style="text;html=1;strokeColor=none;fillColor=none;align=center;verticalAlign=middle;whiteSpace=wrap;rounded=0;" vertex="1" parent="1">
          <mxGeometry x="-160" y="670" width="20" height="20" as="geometry" />
        </mxCell>
        <mxCell id="khXIBc9hb-4F274Rollf-168" value="&lt;font style=&quot;font-size: 10px;&quot;&gt;102&lt;/font&gt;" style="text;html=1;strokeColor=none;fillColor=none;align=center;verticalAlign=middle;whiteSpace=wrap;rounded=0;" vertex="1" parent="1">
          <mxGeometry x="-180" y="670" width="20" height="20" as="geometry" />
        </mxCell>
        <mxCell id="khXIBc9hb-4F274Rollf-169" value="" style="endArrow=none;html=1;rounded=0;entryX=0;entryY=0;entryDx=0;entryDy=0;exitX=1;exitY=1;exitDx=0;exitDy=0;" edge="1" parent="1" source="khXIBc9hb-4F274Rollf-168" target="khXIBc9hb-4F274Rollf-166">
          <mxGeometry width="50" height="50" relative="1" as="geometry">
            <mxPoint x="-170" y="695" as="sourcePoint" />
            <mxPoint x="-120" y="645" as="targetPoint" />
          </mxGeometry>
        </mxCell>
        <mxCell id="khXIBc9hb-4F274Rollf-170" value="" style="endArrow=none;html=1;rounded=0;entryX=1;entryY=0;entryDx=0;entryDy=0;exitX=0;exitY=0;exitDx=0;exitDy=0;" edge="1" parent="1" source="khXIBc9hb-4F274Rollf-168" target="khXIBc9hb-4F274Rollf-167">
          <mxGeometry width="50" height="50" relative="1" as="geometry">
            <mxPoint x="-150" y="710" as="sourcePoint" />
            <mxPoint x="-150" y="650" as="targetPoint" />
          </mxGeometry>
        </mxCell>
        <mxCell id="khXIBc9hb-4F274Rollf-171" value="H = 7" style="text;html=1;strokeColor=none;fillColor=none;align=center;verticalAlign=middle;whiteSpace=wrap;rounded=0;" vertex="1" parent="1">
          <mxGeometry x="-90" y="660" width="50" height="25" as="geometry" />
        </mxCell>
        <mxCell id="khXIBc9hb-4F274Rollf-172" value="7" style="text;html=1;strokeColor=none;fillColor=none;align=center;verticalAlign=middle;whiteSpace=wrap;rounded=0;" vertex="1" parent="1">
          <mxGeometry x="-110" y="710" width="60" height="30" as="geometry" />
        </mxCell>
        <mxCell id="khXIBc9hb-4F274Rollf-195" style="edgeStyle=orthogonalEdgeStyle;rounded=0;orthogonalLoop=1;jettySize=auto;html=1;" edge="1" parent="1" source="khXIBc9hb-4F274Rollf-175" target="khXIBc9hb-4F274Rollf-185">
          <mxGeometry relative="1" as="geometry" />
        </mxCell>
        <mxCell id="khXIBc9hb-4F274Rollf-175" value="&lt;b&gt;J&lt;/b&gt;" style="ellipse;whiteSpace=wrap;html=1;aspect=fixed;fillColor=#fff2cc;strokeColor=#d6b656;" vertex="1" parent="1">
          <mxGeometry x="460" y="550" width="60" height="60" as="geometry" />
        </mxCell>
        <mxCell id="khXIBc9hb-4F274Rollf-176" value="15" style="text;html=1;strokeColor=none;fillColor=none;align=center;verticalAlign=middle;whiteSpace=wrap;rounded=0;" vertex="1" parent="1">
          <mxGeometry x="420" y="530" width="20" height="20" as="geometry" />
        </mxCell>
        <mxCell id="khXIBc9hb-4F274Rollf-177" value="&lt;font style=&quot;font-size: 10px;&quot;&gt;105&lt;/font&gt;" style="text;html=1;strokeColor=none;fillColor=none;align=center;verticalAlign=middle;whiteSpace=wrap;rounded=0;" vertex="1" parent="1">
          <mxGeometry x="440" y="530" width="20" height="20" as="geometry" />
        </mxCell>
        <mxCell id="khXIBc9hb-4F274Rollf-178" value="&lt;font style=&quot;font-size: 10px;&quot;&gt;105&lt;/font&gt;" style="text;html=1;strokeColor=none;fillColor=none;align=center;verticalAlign=middle;whiteSpace=wrap;rounded=0;" vertex="1" parent="1">
          <mxGeometry x="440" y="550" width="20" height="20" as="geometry" />
        </mxCell>
        <mxCell id="khXIBc9hb-4F274Rollf-179" value="15" style="text;html=1;strokeColor=none;fillColor=none;align=center;verticalAlign=middle;whiteSpace=wrap;rounded=0;" vertex="1" parent="1">
          <mxGeometry x="420" y="550" width="20" height="20" as="geometry" />
        </mxCell>
        <mxCell id="khXIBc9hb-4F274Rollf-180" value="" style="endArrow=none;html=1;rounded=0;entryX=0;entryY=0;entryDx=0;entryDy=0;exitX=1;exitY=1;exitDx=0;exitDy=0;" edge="1" parent="1" source="khXIBc9hb-4F274Rollf-179" target="khXIBc9hb-4F274Rollf-177">
          <mxGeometry width="50" height="50" relative="1" as="geometry">
            <mxPoint x="430" y="575" as="sourcePoint" />
            <mxPoint x="480" y="525" as="targetPoint" />
          </mxGeometry>
        </mxCell>
        <mxCell id="khXIBc9hb-4F274Rollf-181" value="" style="endArrow=none;html=1;rounded=0;entryX=1;entryY=0;entryDx=0;entryDy=0;exitX=0;exitY=0;exitDx=0;exitDy=0;" edge="1" parent="1" source="khXIBc9hb-4F274Rollf-179" target="khXIBc9hb-4F274Rollf-178">
          <mxGeometry width="50" height="50" relative="1" as="geometry">
            <mxPoint x="450" y="590" as="sourcePoint" />
            <mxPoint x="450" y="530" as="targetPoint" />
          </mxGeometry>
        </mxCell>
        <mxCell id="khXIBc9hb-4F274Rollf-182" value="H = 0" style="text;html=1;strokeColor=none;fillColor=none;align=center;verticalAlign=middle;whiteSpace=wrap;rounded=0;" vertex="1" parent="1">
          <mxGeometry x="510" y="540" width="50" height="25" as="geometry" />
        </mxCell>
        <mxCell id="khXIBc9hb-4F274Rollf-183" value="90" style="text;html=1;strokeColor=none;fillColor=none;align=center;verticalAlign=middle;whiteSpace=wrap;rounded=0;" vertex="1" parent="1">
          <mxGeometry x="490" y="590" width="60" height="30" as="geometry" />
        </mxCell>
        <mxCell id="khXIBc9hb-4F274Rollf-206" style="edgeStyle=orthogonalEdgeStyle;rounded=0;orthogonalLoop=1;jettySize=auto;html=1;entryX=0.5;entryY=0;entryDx=0;entryDy=0;" edge="1" parent="1" source="khXIBc9hb-4F274Rollf-185" target="khXIBc9hb-4F274Rollf-197">
          <mxGeometry relative="1" as="geometry" />
        </mxCell>
        <mxCell id="khXIBc9hb-4F274Rollf-185" value="&lt;b&gt;K&lt;/b&gt;" style="ellipse;whiteSpace=wrap;html=1;aspect=fixed;fillColor=#fff2cc;strokeColor=#d6b656;" vertex="1" parent="1">
          <mxGeometry x="460" y="670" width="60" height="60" as="geometry" />
        </mxCell>
        <mxCell id="khXIBc9hb-4F274Rollf-187" value="&lt;font style=&quot;font-size: 10px;&quot;&gt;107&lt;/font&gt;" style="text;html=1;strokeColor=none;fillColor=none;align=center;verticalAlign=middle;whiteSpace=wrap;rounded=0;" vertex="1" parent="1">
          <mxGeometry x="440" y="650" width="20" height="20" as="geometry" />
        </mxCell>
        <mxCell id="khXIBc9hb-4F274Rollf-190" value="" style="endArrow=none;html=1;rounded=0;entryX=0;entryY=0;entryDx=0;entryDy=0;exitX=1;exitY=1;exitDx=0;exitDy=0;" edge="1" parent="1" target="khXIBc9hb-4F274Rollf-187">
          <mxGeometry width="50" height="50" relative="1" as="geometry">
            <mxPoint x="440" y="690" as="sourcePoint" />
            <mxPoint x="480" y="645" as="targetPoint" />
          </mxGeometry>
        </mxCell>
        <mxCell id="khXIBc9hb-4F274Rollf-191" value="" style="endArrow=none;html=1;rounded=0;entryX=1;entryY=0;entryDx=0;entryDy=0;exitX=0;exitY=0;exitDx=0;exitDy=0;" edge="1" parent="1">
          <mxGeometry width="50" height="50" relative="1" as="geometry">
            <mxPoint x="420" y="670" as="sourcePoint" />
            <mxPoint x="460" y="670" as="targetPoint" />
          </mxGeometry>
        </mxCell>
        <mxCell id="khXIBc9hb-4F274Rollf-192" value="H = 0" style="text;html=1;strokeColor=none;fillColor=none;align=center;verticalAlign=middle;whiteSpace=wrap;rounded=0;" vertex="1" parent="1">
          <mxGeometry x="510" y="660" width="50" height="25" as="geometry" />
        </mxCell>
        <mxCell id="khXIBc9hb-4F274Rollf-193" value="2" style="text;html=1;strokeColor=none;fillColor=none;align=center;verticalAlign=middle;whiteSpace=wrap;rounded=0;" vertex="1" parent="1">
          <mxGeometry x="500" y="710" width="60" height="30" as="geometry" />
        </mxCell>
        <mxCell id="khXIBc9hb-4F274Rollf-194" value="&lt;font style=&quot;font-size: 10px;&quot;&gt;105&lt;/font&gt;" style="text;html=1;strokeColor=none;fillColor=none;align=center;verticalAlign=middle;whiteSpace=wrap;rounded=0;" vertex="1" parent="1">
          <mxGeometry x="420" y="650" width="20" height="20" as="geometry" />
        </mxCell>
        <mxCell id="khXIBc9hb-4F274Rollf-222" style="edgeStyle=orthogonalEdgeStyle;rounded=0;orthogonalLoop=1;jettySize=auto;html=1;" edge="1" parent="1" source="khXIBc9hb-4F274Rollf-197" target="khXIBc9hb-4F274Rollf-207">
          <mxGeometry relative="1" as="geometry" />
        </mxCell>
        <mxCell id="khXIBc9hb-4F274Rollf-197" value="&lt;b&gt;L&lt;/b&gt;" style="ellipse;whiteSpace=wrap;html=1;aspect=fixed;fillColor=#fff2cc;strokeColor=#d6b656;" vertex="1" parent="1">
          <mxGeometry x="460" y="790" width="60" height="60" as="geometry" />
        </mxCell>
        <mxCell id="khXIBc9hb-4F274Rollf-198" value="&lt;font style=&quot;font-size: 10px;&quot;&gt;109&lt;/font&gt;" style="text;html=1;strokeColor=none;fillColor=none;align=center;verticalAlign=middle;whiteSpace=wrap;rounded=0;" vertex="1" parent="1">
          <mxGeometry x="440" y="770" width="20" height="20" as="geometry" />
        </mxCell>
        <mxCell id="khXIBc9hb-4F274Rollf-201" value="" style="endArrow=none;html=1;rounded=0;entryX=0;entryY=0;entryDx=0;entryDy=0;exitX=1;exitY=1;exitDx=0;exitDy=0;" edge="1" parent="1" target="khXIBc9hb-4F274Rollf-198">
          <mxGeometry width="50" height="50" relative="1" as="geometry">
            <mxPoint x="440" y="810" as="sourcePoint" />
            <mxPoint x="480" y="765" as="targetPoint" />
          </mxGeometry>
        </mxCell>
        <mxCell id="khXIBc9hb-4F274Rollf-202" value="" style="endArrow=none;html=1;rounded=0;entryX=1;entryY=0;entryDx=0;entryDy=0;exitX=0;exitY=0;exitDx=0;exitDy=0;" edge="1" parent="1">
          <mxGeometry width="50" height="50" relative="1" as="geometry">
            <mxPoint x="420" y="790" as="sourcePoint" />
            <mxPoint x="460" y="790" as="targetPoint" />
          </mxGeometry>
        </mxCell>
        <mxCell id="khXIBc9hb-4F274Rollf-203" value="H = 0" style="text;html=1;strokeColor=none;fillColor=none;align=center;verticalAlign=middle;whiteSpace=wrap;rounded=0;" vertex="1" parent="1">
          <mxGeometry x="510" y="780" width="50" height="25" as="geometry" />
        </mxCell>
        <mxCell id="khXIBc9hb-4F274Rollf-204" value="2" style="text;html=1;strokeColor=none;fillColor=none;align=center;verticalAlign=middle;whiteSpace=wrap;rounded=0;" vertex="1" parent="1">
          <mxGeometry x="500" y="830" width="60" height="30" as="geometry" />
        </mxCell>
        <mxCell id="khXIBc9hb-4F274Rollf-205" value="&lt;font style=&quot;font-size: 10px;&quot;&gt;107&lt;/font&gt;" style="text;html=1;strokeColor=none;fillColor=none;align=center;verticalAlign=middle;whiteSpace=wrap;rounded=0;" vertex="1" parent="1">
          <mxGeometry x="420" y="770" width="20" height="20" as="geometry" />
        </mxCell>
        <mxCell id="khXIBc9hb-4F274Rollf-207" value="&lt;b&gt;Fin&lt;/b&gt;" style="ellipse;whiteSpace=wrap;html=1;aspect=fixed;fillColor=#f8cecc;strokeColor=#b85450;" vertex="1" parent="1">
          <mxGeometry x="150" y="780" width="80" height="80" as="geometry" />
        </mxCell>
        <mxCell id="khXIBc9hb-4F274Rollf-210" value="&lt;font style=&quot;font-size: 10px;&quot;&gt;109&lt;/font&gt;" style="text;html=1;strokeColor=none;fillColor=none;align=center;verticalAlign=middle;whiteSpace=wrap;rounded=0;" vertex="1" parent="1">
          <mxGeometry x="130" y="785" width="20" height="20" as="geometry" />
        </mxCell>
        <mxCell id="khXIBc9hb-4F274Rollf-211" value="&lt;font style=&quot;font-size: 10px;&quot;&gt;109&lt;/font&gt;" style="text;html=1;strokeColor=none;fillColor=none;align=center;verticalAlign=middle;whiteSpace=wrap;rounded=0;" vertex="1" parent="1">
          <mxGeometry x="110" y="785" width="20" height="20" as="geometry" />
        </mxCell>
        <mxCell id="khXIBc9hb-4F274Rollf-212" value="" style="endArrow=none;html=1;rounded=0;entryX=0;entryY=0;entryDx=0;entryDy=0;exitX=1;exitY=1;exitDx=0;exitDy=0;" edge="1" parent="1" source="khXIBc9hb-4F274Rollf-211">
          <mxGeometry width="50" height="50" relative="1" as="geometry">
            <mxPoint x="120" y="810" as="sourcePoint" />
            <mxPoint x="130" y="765" as="targetPoint" />
          </mxGeometry>
        </mxCell>
        <mxCell id="khXIBc9hb-4F274Rollf-213" value="" style="endArrow=none;html=1;rounded=0;entryX=1;entryY=0;entryDx=0;entryDy=0;exitX=0;exitY=0;exitDx=0;exitDy=0;" edge="1" parent="1" source="khXIBc9hb-4F274Rollf-211" target="khXIBc9hb-4F274Rollf-210">
          <mxGeometry width="50" height="50" relative="1" as="geometry">
            <mxPoint x="140" y="825" as="sourcePoint" />
            <mxPoint x="140" y="765" as="targetPoint" />
          </mxGeometry>
        </mxCell>
        <mxCell id="khXIBc9hb-4F274Rollf-214" value="H = 0" style="text;html=1;strokeColor=none;fillColor=none;align=center;verticalAlign=middle;whiteSpace=wrap;rounded=0;" vertex="1" parent="1">
          <mxGeometry x="220" y="775" width="50" height="25" as="geometry" />
        </mxCell>
        <mxCell id="khXIBc9hb-4F274Rollf-215" value="109" style="text;html=1;strokeColor=none;fillColor=none;align=center;verticalAlign=middle;whiteSpace=wrap;rounded=0;" vertex="1" parent="1">
          <mxGeometry x="200" y="845" width="60" height="30" as="geometry" />
        </mxCell>
        <mxCell id="khXIBc9hb-4F274Rollf-216" value="&lt;font style=&quot;font-size: 10px;&quot;&gt;109&lt;/font&gt;" style="text;html=1;strokeColor=none;fillColor=none;align=center;verticalAlign=middle;whiteSpace=wrap;rounded=0;" vertex="1" parent="1">
          <mxGeometry x="110" y="765" width="20" height="20" as="geometry" />
        </mxCell>
        <mxCell id="khXIBc9hb-4F274Rollf-218" value="&lt;font style=&quot;font-size: 10px;&quot;&gt;109&lt;/font&gt;" style="text;html=1;strokeColor=none;fillColor=none;align=center;verticalAlign=middle;whiteSpace=wrap;rounded=0;" vertex="1" parent="1">
          <mxGeometry x="130" y="765" width="20" height="20" as="geometry" />
        </mxCell>
        <mxCell id="khXIBc9hb-4F274Rollf-228" value="&lt;font style=&quot;font-size: 10px;&quot;&gt;109&lt;/font&gt;" style="text;html=1;strokeColor=none;fillColor=none;align=center;verticalAlign=middle;whiteSpace=wrap;rounded=0;" vertex="1" parent="1">
          <mxGeometry x="440" y="790" width="20" height="20" as="geometry" />
        </mxCell>
        <mxCell id="khXIBc9hb-4F274Rollf-230" value="&lt;font style=&quot;font-size: 10px;&quot;&gt;107&lt;/font&gt;" style="text;html=1;strokeColor=none;fillColor=none;align=center;verticalAlign=middle;whiteSpace=wrap;rounded=0;" vertex="1" parent="1">
          <mxGeometry x="420" y="790" width="20" height="20" as="geometry" />
        </mxCell>
        <mxCell id="khXIBc9hb-4F274Rollf-231" value="&lt;font style=&quot;font-size: 10px;&quot;&gt;107&lt;/font&gt;" style="text;html=1;strokeColor=none;fillColor=none;align=center;verticalAlign=middle;whiteSpace=wrap;rounded=0;" vertex="1" parent="1">
          <mxGeometry x="440" y="670" width="20" height="20" as="geometry" />
        </mxCell>
        <mxCell id="khXIBc9hb-4F274Rollf-233" value="&lt;font style=&quot;font-size: 10px;&quot;&gt;105&lt;/font&gt;" style="text;html=1;strokeColor=none;fillColor=none;align=center;verticalAlign=middle;whiteSpace=wrap;rounded=0;" vertex="1" parent="1">
          <mxGeometry x="420" y="670" width="20" height="20" as="geometry" />
        </mxCell>
        <mxCell id="khXIBc9hb-4F274Rollf-236" value="&lt;font style=&quot;font-size: 10px;&quot;&gt;109&lt;/font&gt;" style="text;html=1;strokeColor=none;fillColor=none;align=center;verticalAlign=middle;whiteSpace=wrap;rounded=0;" vertex="1" parent="1">
          <mxGeometry x="140" y="550" width="20" height="20" as="geometry" />
        </mxCell>
        <mxCell id="khXIBc9hb-4F274Rollf-238" value="&lt;font style=&quot;font-size: 10px;&quot;&gt;102&lt;/font&gt;" style="text;html=1;strokeColor=none;fillColor=none;align=center;verticalAlign=middle;whiteSpace=wrap;rounded=0;" vertex="1" parent="1">
          <mxGeometry x="120" y="550" width="20" height="20" as="geometry" />
        </mxCell>
        <mxCell id="khXIBc9hb-4F274Rollf-241" value="&lt;font style=&quot;font-size: 10px;&quot;&gt;109&lt;/font&gt;" style="text;html=1;strokeColor=none;fillColor=none;align=center;verticalAlign=middle;whiteSpace=wrap;rounded=0;" vertex="1" parent="1">
          <mxGeometry x="-10" y="550" width="20" height="20" as="geometry" />
        </mxCell>
      </root>
    </mxGraphModel>
  </diagram>
</mxfile>
